# AST/ASF file generated using VICON BodyLanguage
# -----------------------------------------------
:version 1.10
:name VICON
:units
  mass 1.0
  length 0.45
  angle deg
:documentation
   .ast/.asf automatically generated from VICON data using
   VICON BodyBuilder and BodyLanguage model FoxedUp or BRILLIANT.MOD
:root
   order TX TY TZ RX RY RZ
   axis XYZ
   position 0 0 0  
   orientation 0 0 0 
:bonedata
  begin
     id 1 
     name lhipjoint
     direction 0.645893 -0.654526 0.392961 
     length 2.38111 
     axis 0 0 0  XYZ
  end
  begin
     id 2 
     name lfemur
     direction 0.34202 -0.939693 0  
     length 6.6822  
     axis 0 0 20  XYZ
    dof rx ry rz
    limits (-160.0 20.0)
           (-70.0 70.0)
           (-60.0 70.0)
  end
  begin
     id 3 
     name ltibia
     direction 0.34202 -0.939693 0   
     length 6.93904   
     axis 0 0 20   XYZ
    dof rx
    limits (-10.0 170.0)
  end
  begin
     id 4 
     name lfoot
     direction 0.0694967 -0.190941 0.979138   
     length 2.13616   
     axis -90 7.62852e-016 20   XYZ
    dof rx rz
    limits (-45.0 90.0)
           (-70.0 20.0)
  end
  begin
     id 5 
     name ltoes
     direction 1.535e-011 -4.2202e-011 1   
     length 1.07536   
     axis -90 7.62852e-016 20   XYZ
    dof rx
    limits (-90.0 20.0)
  end
  begin
     id 6 
     name rhipjoint
     direction -0.700219 -0.612087 0.367481   
     length 2.54621  
     axis 0 0 0  XYZ 
  end
  begin
     id 7 
     name rfemur
     direction -0.34202 -0.939693 0   
     length 6.55353   
     axis 0 0 -20   XYZ
    dof rx ry rz
    limits (-160.0 20.0)
           (-70.0 70.0)
           (-70.0 60.0)
  end
  begin
     id 8 
     name rtibia
     direction -0.34202 -0.939693 0   
     length 6.8736   
     axis 0 0 -20   XYZ
    dof rx
    limits (-10.0 170.0)
 end
 begin
     id 9 
     name rfoot
     direction -0.0679995 -0.186827 0.980037   
     length 2.1218  
     axis -90 -7.62852e-016 -20   XYZ
    dof rx rz
    limits (-45.0 90.0)
           (-20.0 70.0)
  end
  begin
     id 10 
     name rtoes
     direction -1.53589e-011 -4.21772e-011 1   
     length 1.06864   
     axis -90 -7.62852e-016 -20   XYZ
    dof rx
    limits (-90.0 20.0)
  end
  begin
     id 11 
     name lowerback
     direction -0.0416607 0.996347 -0.0745409   
     length 2.12205   
     axis 0 0 0   XYZ
    dof rx ry rz
    limits (-20.0 45.0)
           (-30.0 30.0)
           (-30.0 30.0)
  end
  begin
     id 12 
     name upperback
     direction -0.000153993 0.999276 -0.0380568   
     length 2.12759   
     axis 0 0 0   XYZ
    dof rx ry rz
    limits (-20.0 45.0)
           (-30.0 30.0)
           (-30.0 30.0)
  end
  begin
     id 13 
     name thorax
     direction 0.0187671 0.999821 -0.00241421   
     length 2.13704   
     axis 0 0 0   XYZ
    dof rx ry rz
    limits (-20.0 45.0)
           (-30.0 30.0)
           (-30.0 30.0)
  end
  begin
     id 14 
     name lowerneck
     direction 0.0268157 0.964865 0.261374   
     length 1.65253   
     axis 0 0 0   XYZ
    dof rx ry rz
    limits (-20.0 45.0)
           (-30.0 30.0)
           (-30.0 30.0)
  end
  begin
     id 15 
     name upperneck
     direction 0.00263774 0.939908 -0.341418   
     length 1.72375   
     axis 0 0 0   XYZ
    dof rx ry rz
    limits (-20.0 45.0)
           (-30.0 30.0)
           (-30.0 30.0)
  end
  begin
     id 16
     name head
     direction -0.00526001 0.989001 -0.147818  
     length 1.74878  
     axis 0 0 0   XYZ
    dof rx ry rz
    limits (-20.0 45.0)
           (-30.0 30.0)
           (-30.0 30.0)
  end
  begin
     id 17 
     name lclavicle
     direction 0.881214 0.461162 -0.103884  
     length 3.25108  
     axis 0 0 0   XYZ
    dof ry rz
    limits (-20.0 10.0)
           (0.0 20.0)
  end
  begin
     id 18 
     name lhumerus
     direction 1 -4.4899e-011 3.38092e-027   
     length 4.87408   
     axis 180 -30 -90   XYZ
    dof rx ry rz
    limits (-60.0 90.0)
           (-90.0 90.0)
           (-90.0 90.0)
  end
  begin
     id 19
     name lradius
     direction 1 -4.48931e-011 9.96288e-027   
     length 2.76729   
     axis 180 -30 -90   XYZ
    dof rx
    limits (-10.0 170.0)
  end
  begin
     id 20
     name lwrist
     direction 1 -4.4896e-011 1.50617e-026   
     length 1.38364   
     axis -9.31234e-015 90 90   XYZ
    dof ry
    limits (-180.0 0.0)
 end
  begin
     id 21 
     name lhand
     direction 1 -4.49038e-011 3.01286e-026   
     length 0.98922   
     axis -1.92217e-014 90 90   XYZ
    dof rx rz
    limits (-90.0 90.0)
           (-45.0 45.0)
  end
  begin
     id 22 
     name lfingers
     direction 1 -4.49051e-011 6.02588e-026   
     length 0.797535   
     axis -3.84436e-014 90 90   XYZ
    dof rx
    limits (0.0 90.0)
  end
  begin
     id 23
     name lthumb
     direction 0.707107 -6.34901e-011 0.707107   
     length 1.14511   
     axis -90 45 2.19363e-014   XYZ
    dof rx rz
    limits (-45.0 45.0)
           (-45.0 45.0)
  end
  begin
     id 24 
     name rclavicle
     direction -0.893894 0.441652 -0.0767889   
     length 3.29361  
     axis 0 0 0   XYZ 
    dof ry rz
    limits (-10.0 20.0)
           (-20.0 0.0)
  end
  begin
     id 25 
     name rhumerus
     direction -1 -4.48945e-011 8.0491e-028  
     length 4.71404   
     axis 180 30 90   XYZ
    dof rx ry rz
    limits (-90.0 60.0)
           (-90.0 90.0)
           (-90.0 90.0)
  end
  begin
     id 26 
     name rradius
     direction -1 -4.48986e-011 9.27795e-027   
     length 2.83468   
     axis 180 30 90   XYZ
    dof rx
    limits (-10.0 170.0)
  end
  begin
     id 27 
     name rwrist
     direction -1 -4.49029e-011 1.5064e-026   
     length 1.41734   
     axis -9.31234e-015 -90 -90   XYZ
    dof ry
    limits (-180.0 0.0)
  end
  begin
     id 28
     name rhand
     direction -1 -4.48857e-011 3.01165e-026   
     length 0.868195   
     axis -1.92217e-014 -90 -90   XYZ
    dof rx rz
    limits (-90.0 90.0)
           (-45.0 45.0)
  end
  begin
     id 29
     name rfingers
     direction -1 -4.49048e-011 6.02585e-026   
     length 0.699961   
     axis -3.84436e-014 -90 -90   XYZ
    dof rx
    limits (0.0 90.0)
  end
  begin
     id 30
     name rthumb
     direction -0.707107 -6.34854e-011 0.707107   
     length 1.00501   
     axis -90 -45 -2.19363e-014   XYZ
    dof rx rz
    limits (-45.0 45.0)
           (-45.0 45.0)
  end
:hierarchy
  begin
    root lhipjoint rhipjoint lowerback
    lhipjoint lfemur
    lfemur ltibia
    ltibia lfoot
    lfoot ltoes
    rhipjoint rfemur
    rfemur rtibia
    rtibia rfoot
    rfoot rtoes
    lowerback upperback
    upperback thorax
    thorax lowerneck lclavicle rclavicle
    lowerneck upperneck
    upperneck head
    lclavicle lhumerus
    lhumerus lradius
    lradius lwrist
    lwrist lhand lthumb
    lhand lfingers
    rclavicle rhumerus
    rhumerus rradius
    rradius rwrist
    rwrist rhand rthumb
    rhand rfingers
  end

#!OML:ASF H:\ManfredObstacles\Project 1\Capture day 2\Session 1\male.ASF
:FULLY-SPECIFIED
:DEGREES
32
root 1.46948 15.2998 27.9417 -174.057 -1.9272 174.107
lowerback 1.78526 1.71899 -8.36518
upperback 3.96939 2.01058 -2.57051
thorax 2.91134 0.648234 2.01684
lowerneck -36.5459 -1.64001 -2.12313
upperneck 42.235 -7.43024 4.58961
head 26.9965 -3.07968 0.324895
rclavicle -4.27387e-015 1.70955e-014
rhumerus -49.1455 4.18866 -90.1231
rradius 77.9781
rwrist 10.328
rhand -12.6727 -5.53885
rfingers 7.12502
rthumb 13.4087 -35.0873
lclavicle -4.27387e-015 1.70955e-014
lhumerus -51.2549 -24.7874 95.622
lradius 92.5065
lwrist -19.7856
lhand -17.024 4.06646
lfingers 7.12502
lthumb 9.21218 33.8452
rfemur -24.6937 -3.68833 16.4909
rtibia 80.2493
rfoot 8.13032 -26.8738
rtoes 27.4357
lfemur -19.9602 -1.84735 -30.229
ltibia 43.4953
lfoot -0.35747 24.4768
ltoes -8.87015
33
root 1.4638 15.2708 27.7362 -173.974 -2.19673 173.887
lowerback 2.02294 1.43464 -8.50815
upperback 3.98942 1.59572 -2.59602
thorax 2.83569 0.435925 2.0644
lowerneck -36.5728 -1.38142 -1.8878
upperneck 42.3588 -7.07588 4.34126
head 27.0642 -2.96193 0.241703
rclavicle -7.05686e-015 1.94809e-014
rhumerus -49.7808 3.15646 -89.3619
rradius 76.341
rwrist 9.50169
rhand -12.8511 -5.82187
rfingers 7.12502
rthumb 13.2368 -35.3816
lclavicle -7.05686e-015 1.94809e-014
lhumerus -49.6785 -25.1889 95.7147
lradius 92.4631
lwrist -20.084
lhand -16.9672 3.39907
lfingers 7.12502
lthumb 9.267 33.1754
rfemur -26.6463 -3.82979 16.1744
rtibia 80.9861
rfoot 7.10465 -27.0156
rtoes 27.0322
lfemur -18.9624 -2.05686 -30.5044
ltibia 43.2407
lfoot -0.928637 25.1679
ltoes -8.77621
34
root 1.46091 15.2457 27.5301 -173.924 -2.54231 173.618
lowerback 2.30834 1.11411 -8.72476
upperback 4.03793 1.12398 -2.61067
thorax 2.76941 0.19042 2.16528
lowerneck -36.7029 -1.09511 -1.62241
upperneck 42.4808 -6.66335 4.06035
head 27.1712 -2.81846 0.151635
rclavicle -9.74045e-015 -2.38542e-015
rhumerus -50.3824 2.28388 -88.5775
rradius 74.7177
rwrist 8.59641
rhand -12.9142 -6.1382
rfingers 7.12502
rthumb 13.1759 -35.7019
lclavicle -9.74045e-015 -2.38542e-015
lhumerus -48.1198 -25.5186 95.7863
lradius 92.5339
lwrist -20.3737
lhand -16.9483 2.75561
lfingers 7.12502
lthumb 9.28522 32.5311
rfemur -28.501 -4.02995 15.8139
rtibia 81.48
rfoot 6.10614 -27.1944
rtoes 26.6281
lfemur -17.8541 -2.3127 -30.8136
ltibia 42.8478
lfoot -1.42288 25.7623
ltoes -8.7329
35
root 1.46003 15.2247 27.3217 -173.875 -2.93477 173.35
lowerback 2.61339 0.773832 -8.95936
upperback 4.09729 0.622015 -2.61168
thorax 2.70996 -0.0716056 2.29268
lowerneck -36.8808 -0.80368 -1.34038
upperneck 42.609 -6.24762 3.76426
head 27.3134 -2.6715 0.0485914
rclavicle 9.74045e-015 2.26615e-014
rhumerus -50.9655 1.5335 -87.7841
rradius 73.1222
rwrist 7.72047
rhand -12.901 -6.54432
rfingers 7.12502
rthumb 13.1886 -36.1072
lclavicle 9.74045e-015 2.26615e-014
lhumerus -46.5729 -25.8335 95.8319
lradius 92.6912
lwrist -20.7218
lhand -16.9483 2.22114
lfingers 7.12502
lthumb 9.28518 31.9967
rfemur -30.2707 -4.25475 15.4661
rtibia 81.72
rfoot 5.18844 -27.4046
rtoes 26.355
lfemur -16.6822 -2.59717 -31.1074
ltibia 42.3523
lfoot -1.81517 26.2699
ltoes -8.71116
36
root 1.46121 15.2081 27.1106 -173.82 -3.36444 173.113
lowerback 2.89451 0.426027 -9.19217
upperback 4.19046 0.113209 -2.58468
thorax 2.70455 -0.340551 2.4504
lowerneck -37.1067 -0.49128 -0.921512
upperneck 42.6631 -5.78349 3.36268
head 27.367 -2.48589 -0.126525
rclavicle 7.25564e-015 2.14687e-014
rhumerus -51.5083 0.870183 -86.9607
rradius 71.5719
rwrist 6.90757
rhand -12.856 -6.96274
rfingers 7.12502
rthumb 13.232 -36.5228
lclavicle 7.25564e-015 2.14687e-014
lhumerus -44.9792 -26.187 95.8483
lradius 92.9171
lwrist -21.0497
lhand -16.9487 1.83956
lfingers 7.12502
lthumb 9.2848 31.6151
rfemur -31.9513 -4.48013 15.1658
rtibia 81.6985
rfoot 4.34145 -27.666
rtoes 26.1491
lfemur -15.4745 -2.89608 -31.3539
ltibia 41.7897
lfoot -2.13412 26.6847
ltoes -8.70302
37
root 1.46289 15.1959 26.8972 -173.731 -3.7988 172.917
lowerback 3.14627 0.0761523 -9.38891
upperback 4.28215 -0.393271 -2.53939
thorax 2.71853 -0.607356 2.60881
lowerneck -37.3058 -0.165345 -0.408592
upperneck 42.6504 -5.29604 2.89834
head 27.323 -2.27846 -0.347347
rclavicle -1.68967e-015 1.63003e-014
rhumerus -52.0476 0.266409 -86.1148
rradius 70.0642
rwrist 6.22369
rhand -12.7671 -7.3529
rfingers 7.12502
rthumb 13.3177 -36.9073
lclavicle -1.68967e-015 1.63003e-014
lhumerus -43.3667 -26.5895 95.8339
lradius 93.1865
lwrist -21.3349
lhand -16.9378 1.60644
lfingers 7.12502
lthumb 9.29539 31.3815
rfemur -33.579 -4.67798 14.9188
rtibia 81.4211
rfoot 3.59912 -27.9709
rtoes 26.0528
lfemur -14.2823 -3.19745 -31.5474
ltibia 41.1863
lfoot -2.35199 27.0144
ltoes -8.71583
